<?xml version="1.0" encoding="utf-8"?>
<!-- Generator: Adobe Illustrator 18.1.1, SVG Export Plug-In . SVG Version: 6.00 Build 0)  -->
<!DOCTYPE svg PUBLIC "-//W3C//DTD SVG 1.1//EN" "http://www.w3.org/Graphics/SVG/1.1/DTD/svg11.dtd">
<svg version="1.1" id="Layer_1" xmlns="http://www.w3.org/2000/svg" xmlns:xlink="http://www.w3.org/1999/xlink" x="0px" y="0px"
	 width="100px" height="100px" viewBox="-381 599 100 100" enable-background="new -381 599 100 100" xml:space="preserve">
<g>
	<path fill="#4E240D" stroke="#4E240D" stroke-miterlimit="10" d="M-298.2,641.6c1.1,4.1,1.7,8.5,1.7,13c0,0.5,0,1,0,1.6l5.3,2.1
		l4.4-3.6l3.4,4l-6.6,5.5l-6.9-2.8c-0.8,6.1-2.6,11.7-5.3,16.7l0.9-1.3l5.2,2.9l4.9-3l2.7,4.4l-7.3,4.4l-8.1-4.7
		c-6.3,9.8-16.1,16.2-27.2,16.2c-11,0-20.8-6.3-27.1-16.1l-8,4.7l-7.3-4.4l2.7-4.4l4.9,3l5.2-2.9l0.4,0.5
		c-2.4-4.7-4.1-10.1-4.9-15.8l-6.7,2.7l-6.6-5.5l3.4-4l4.4,3.6l5.1-2c0-0.6,0-1.1,0-1.7c0-4.5,0.6-8.9,1.7-13l-8.6-0.3l-3.8-7.7
		l4.7-2.3l2.5,5.1l6,0.3l0.1,1.7c3.6-10.6,10.6-19,19.3-23.2c0.2-3.2,2.9-5.8,6.2-5.8h14.5c3.4,0,6.2,2.8,6.2,6.2c0,0.1,0,0.3,0,0.4
		c8.2,4.5,14.7,12.8,18,23.1l0.1-2.3l6-0.3l2.5-5.1l4.7,2.3l-3.8,7.7L-298.2,641.6z"/>
	<polygon fill="#4E240D" stroke="#4E240D" stroke-miterlimit="10" points="-313.6,603.9 -314.3,605.8 -315.3,606.2 -317.6,606.8 
		-319.4,607.9 -322,609.4 -322,607.9 -319.1,605.9 -316.9,605.2 -315.1,603.9 -314,601.8 -311.9,601.1 -312.5,603.1 	"/>
	<polygon fill="#4E240D" stroke="#4E240D" stroke-miterlimit="10" points="-343.2,606.8 -345.4,606.2 -346.5,605.8 -347.2,603.9 
		-348.3,603.1 -348.9,601.1 -346.8,601.8 -345.7,603.9 -343.8,605.2 -341.7,605.9 -338.8,607.9 -338.8,609.4 -341.4,607.9 	"/>
</g>
</svg>
