<svg xmlns="http://www.w3.org/2000/svg" width="100" height="100" viewBox="-381 599 100 100" enable-background="new -381 599 100 100"><g fill="#4E240D" stroke="#4E240D" stroke-miterlimit="10"><path d="M-298.2 641.6c1.1 4.1 1.7 8.5 1.7 13v1.6l5.3 2.1 4.4-3.6 3.4 4-6.6 5.5-6.9-2.8c-.8 6.1-2.6 11.7-5.3 16.7l.9-1.3 5.2 2.9 4.9-3 2.7 4.4-7.3 4.4-8.1-4.7c-6.3 9.8-16.1 16.2-27.2 16.2-11 0-20.8-6.3-27.1-16.1l-8 4.7-7.3-4.4 2.7-4.4 4.9 3 5.2-2.9.4.5c-2.4-4.7-4.1-10.1-4.9-15.8l-6.7 2.7-6.6-5.5 3.4-4 4.4 3.6 5.1-2v-1.7c0-4.5.6-8.9 1.7-13l-8.6-.3-3.8-7.7 4.7-2.3 2.5 5.1 6 .3.1 1.7c3.6-10.6 10.6-19 19.3-23.2.2-3.2 2.9-5.8 6.2-5.8h14.5c3.4 0 6.2 2.8 6.2 6.2v.4c8.2 4.5 14.7 12.8 18 23.1l.1-2.3 6-.3 2.5-5.1 4.7 2.3-3.8 7.7-8.9.1zM-313.6 603.9l-.7 1.9-1 .4-2.3.6-1.8 1.1-2.6 1.5v-1.5l2.9-2 2.2-.7 1.8-1.3 1.1-2.1 2.1-.7-.6 2zM-343.2 606.8l-2.2-.6-1.1-.4-.7-1.9-1.1-.8-.6-2 2.1.7 1.1 2.1 1.9 1.3 2.1.7 2.9 2v1.5l-2.6-1.5z"/></g></svg>